{
	"asset":{
		"generator":"Khronos glTF Blender I/O v3.6.27",
		"version":"2.0"
	},
	"scene":0,
	"scenes":[
		{
			"name":"Scene",
			"nodes":[
				0,
				1,
				2,
				3
			]
		}
	],
	"nodes":[
		{
			"mesh":0,
			"name":"Plane"
		},
		{
			"mesh":1,
			"name":"Cube"
		},
		{
			"mesh":2,
			"name":"Cube.001",
			"scale":[
				0.44856226444244385,
				0.44856226444244385,
				0.44856226444244385
			],
			"translation":[
				-1.3740414381027222,
				0.9929786920547485,
				1.9767694473266602
			]
		},
		{
			"camera":0,
			"name":"Camera",
			"rotation":[
				-0.06852035969495773,
				0.906210720539093,
				0.14149315655231476,
				0.3925133943557739
			],
			"translation":[
				7.878322124481201,
				3.4030463695526123,
				-8.02289867401123
			]
		}
	],
	"cameras":[
		{
			"name":"Camera.001",
			"perspective":{
				"aspectRatio":1.7777777777777777,
				"yfov":0.39959652046304894,
				"zfar":1000,
				"znear":0.10000000149011612
			},
			"type":"perspective"
		}
	],
	"animations":[
		{
			"channels":[
				{
					"sampler":0,
					"target":{
						"node":2,
						"path":"translation"
					}
				},
				{
					"sampler":1,
					"target":{
						"node":2,
						"path":"rotation"
					}
				},
				{
					"sampler":2,
					"target":{
						"node":2,
						"path":"scale"
					}
				}
			],
			"name":"Cube.001Action",
			"samplers":[
				{
					"input":11,
					"interpolation":"LINEAR",
					"output":12
				},
				{
					"input":13,
					"interpolation":"STEP",
					"output":14
				},
				{
					"input":13,
					"interpolation":"STEP",
					"output":15
				}
			]
		},
		{
			"channels":[
				{
					"sampler":0,
					"target":{
						"node":3,
						"path":"translation"
					}
				},
				{
					"sampler":1,
					"target":{
						"node":3,
						"path":"rotation"
					}
				},
				{
					"sampler":2,
					"target":{
						"node":3,
						"path":"scale"
					}
				}
			],
			"name":"CameraAction",
			"samplers":[
				{
					"input":16,
					"interpolation":"LINEAR",
					"output":17
				},
				{
					"input":16,
					"interpolation":"LINEAR",
					"output":18
				},
				{
					"input":19,
					"interpolation":"STEP",
					"output":20
				}
			]
		}
	],
	"materials":[
		{
			"doubleSided":true,
			"name":"Material.001",
			"pbrMetallicRoughness":{
				"baseColorFactor":[
					0,
					0.8000000715255737,
					0.5954435467720032,
					1
				],
				"metallicFactor":0,
				"roughnessFactor":0.4000000059604645
			}
		},
		{
			"doubleSided":true,
			"name":"CW-Paint-shiny",
			"pbrMetallicRoughness":{
				"baseColorFactor":[
					0.8000000715255737,
					0,
					0.003285852959379554,
					1
				],
				"metallicFactor":0,
				"roughnessFactor":0.25
			}
		},
		{
			"doubleSided":true,
			"name":"CW-Plastic-shiny",
			"pbrMetallicRoughness":{
				"baseColorFactor":[
					0,
					0.05216861516237259,
					0.8000000715255737,
					1
				],
				"metallicFactor":0,
				"roughnessFactor":0.25
			}
		}
	],
	"meshes":[
		{
			"name":"Plane",
			"primitives":[
				{
					"attributes":{
						"POSITION":0,
						"NORMAL":1,
						"TEXCOORD_0":2
					},
					"indices":3,
					"material":0
				}
			]
		},
		{
			"name":"Cube.001",
			"primitives":[
				{
					"attributes":{
						"POSITION":4,
						"NORMAL":5,
						"TEXCOORD_0":6
					},
					"indices":7,
					"material":1
				}
			]
		},
		{
			"name":"Cube",
			"primitives":[
				{
					"attributes":{
						"POSITION":8,
						"NORMAL":9
					},
					"indices":10,
					"material":2
				}
			]
		}
	],
	"accessors":[
		{
			"bufferView":0,
			"componentType":5126,
			"count":4,
			"max":[
				2.977301597595215,
				0,
				2.977301597595215
			],
			"min":[
				-2.977301597595215,
				0,
				-2.977301597595215
			],
			"type":"VEC3"
		},
		{
			"bufferView":1,
			"componentType":5126,
			"count":4,
			"type":"VEC3"
		},
		{
			"bufferView":2,
			"componentType":5126,
			"count":4,
			"type":"VEC2"
		},
		{
			"bufferView":3,
			"componentType":5123,
			"count":6,
			"type":"SCALAR"
		},
		{
			"bufferView":4,
			"componentType":5126,
			"count":475,
			"max":[
				1,
				1,
				1
			],
			"min":[
				-1,
				0.015981316566467285,
				-1
			],
			"type":"VEC3"
		},
		{
			"bufferView":5,
			"componentType":5126,
			"count":475,
			"type":"VEC3"
		},
		{
			"bufferView":6,
			"componentType":5126,
			"count":475,
			"type":"VEC2"
		},
		{
			"bufferView":7,
			"componentType":5123,
			"count":1716,
			"type":"SCALAR"
		},
		{
			"bufferView":8,
			"componentType":5126,
			"count":1538,
			"max":[
				1.7320095300674438,
				1.7320095300674438,
				1.7320095300674438
			],
			"min":[
				-1.7320095300674438,
				-1.7320095300674438,
				-1.7320095300674438
			],
			"type":"VEC3"
		},
		{
			"bufferView":9,
			"componentType":5126,
			"count":1538,
			"type":"VEC3"
		},
		{
			"bufferView":10,
			"componentType":5123,
			"count":9216,
			"type":"SCALAR"
		},
		{
			"bufferView":11,
			"componentType":5126,
			"count":249,
			"max":[
				10.375
			],
			"min":[
				0.041666666666666664
			],
			"type":"SCALAR"
		},
		{
			"bufferView":12,
			"componentType":5126,
			"count":249,
			"type":"VEC3"
		},
		{
			"bufferView":13,
			"componentType":5126,
			"count":2,
			"max":[
				10.375
			],
			"min":[
				0.041666666666666664
			],
			"type":"SCALAR"
		},
		{
			"bufferView":14,
			"componentType":5126,
			"count":2,
			"type":"VEC4"
		},
		{
			"bufferView":15,
			"componentType":5126,
			"count":2,
			"type":"VEC3"
		},
		{
			"bufferView":16,
			"componentType":5126,
			"count":246,
			"max":[
				10.416666666666666
			],
			"min":[
				0.20833333333333334
			],
			"type":"SCALAR"
		},
		{
			"bufferView":17,
			"componentType":5126,
			"count":246,
			"type":"VEC3"
		},
		{
			"bufferView":18,
			"componentType":5126,
			"count":246,
			"type":"VEC4"
		},
		{
			"bufferView":19,
			"componentType":5126,
			"count":2,
			"max":[
				10.416666666666666
			],
			"min":[
				0.20833333333333334
			],
			"type":"SCALAR"
		},
		{
			"bufferView":20,
			"componentType":5126,
			"count":2,
			"type":"VEC3"
		}
	],
	"bufferViews":[
		{
			"buffer":0,
			"byteLength":48,
			"byteOffset":0,
			"target":34962
		},
		{
			"buffer":0,
			"byteLength":48,
			"byteOffset":48,
			"target":34962
		},
		{
			"buffer":0,
			"byteLength":32,
			"byteOffset":96,
			"target":34962
		},
		{
			"buffer":0,
			"byteLength":12,
			"byteOffset":128,
			"target":34963
		},
		{
			"buffer":0,
			"byteLength":5700,
			"byteOffset":140,
			"target":34962
		},
		{
			"buffer":0,
			"byteLength":5700,
			"byteOffset":5840,
			"target":34962
		},
		{
			"buffer":0,
			"byteLength":3800,
			"byteOffset":11540,
			"target":34962
		},
		{
			"buffer":0,
			"byteLength":3432,
			"byteOffset":15340,
			"target":34963
		},
		{
			"buffer":0,
			"byteLength":18456,
			"byteOffset":18772,
			"target":34962
		},
		{
			"buffer":0,
			"byteLength":18456,
			"byteOffset":37228,
			"target":34962
		},
		{
			"buffer":0,
			"byteLength":18432,
			"byteOffset":55684,
			"target":34963
		},
		{
			"buffer":0,
			"byteLength":996,
			"byteOffset":74116
		},
		{
			"buffer":0,
			"byteLength":2988,
			"byteOffset":75112
		},
		{
			"buffer":0,
			"byteLength":8,
			"byteOffset":78100
		},
		{
			"buffer":0,
			"byteLength":32,
			"byteOffset":78108
		},
		{
			"buffer":0,
			"byteLength":24,
			"byteOffset":78140
		},
		{
			"buffer":0,
			"byteLength":984,
			"byteOffset":78164
		},
		{
			"buffer":0,
			"byteLength":2952,
			"byteOffset":79148
		},
		{
			"buffer":0,
			"byteLength":3936,
			"byteOffset":82100
		},
		{
			"buffer":0,
			"byteLength":8,
			"byteOffset":86036
		},
		{
			"buffer":0,
			"byteLength":24,
			"byteOffset":86044
		}
	],
	"buffers":[
		{
			"byteLength":86068,
			"uri":"data:application/octet-stream;base64,"
		}
	]
}
